<svg width="30" height="30" viewBox="0 0 30 30" fill="none" xmlns="http://www.w3.org/2000/svg">
<rect width="30" height="30" rx="15" fill="#A62159" fill-opacity="0.15"/>
<path d="M13.1596 24.0063C12.1411 24.0063 11.3125 23.1777 11.3125 22.1593C11.3125 21.1408 12.1411 20.3125 13.1596 20.3125C14.178 20.3125 15.0066 21.1408 15.0066 22.1593C15.0066 23.1777 14.178 24.0063 13.1596 24.0063ZM13.1596 21.4718C12.7805 21.4718 12.4718 21.7802 12.4718 22.1593C12.4718 22.5387 12.7802 22.847 13.1596 22.847C13.5389 22.847 13.8473 22.5387 13.8473 22.1593C13.8473 21.7802 13.5389 21.4718 13.1596 21.4718Z" fill="#A62159"/>
<path d="M19.5811 24.0063C18.5627 24.0063 17.7344 23.1777 17.7344 22.1593C17.7344 21.1408 18.5627 20.3125 19.5811 20.3125C20.5996 20.3125 21.4282 21.1408 21.4282 22.1593C21.4282 23.1777 20.5993 24.0063 19.5811 24.0063ZM19.5811 21.4718C19.2021 21.4718 18.8937 21.7802 18.8937 22.1593C18.8937 22.5387 19.2021 22.847 19.5811 22.847C19.9605 22.847 20.2689 22.5387 20.2689 22.1593C20.2689 21.7802 19.9602 21.4718 19.5811 21.4718Z" fill="#A62159"/>
<path d="M20.9398 18.8748H11.8338C10.9478 18.8748 10.191 18.2717 9.99336 17.408L8.10341 9.15461C8.07848 9.04563 8.00313 8.95231 7.90169 8.90536L6.33402 8.17876C5.97116 8.01066 5.8132 7.57998 5.9813 7.21683C6.1494 6.85397 6.58037 6.69601 6.94323 6.86411L8.5109 7.59071C9.01607 7.8246 9.39197 8.28832 9.51602 8.83116L11.406 17.0851C11.4518 17.2857 11.6277 17.4259 11.8338 17.4259H20.9398C21.145 17.4259 21.3206 17.2865 21.3676 17.0866L22.837 10.7646C22.879 10.5849 22.8025 10.4542 22.7535 10.3925C22.7043 10.3304 22.5941 10.2267 22.4098 10.2267H11.6862C11.286 10.2267 10.9617 9.90236 10.9617 9.50211C10.9617 9.10186 11.286 8.77754 11.6862 8.77754H22.4098C22.9892 8.77754 23.5276 9.03752 23.8882 9.49109C24.2487 9.94467 24.3797 10.5284 24.2487 11.0927L22.779 17.4149C22.5788 18.2743 21.8226 18.8748 20.9398 18.8748Z" fill="#A62159"/>
</svg>
