<svg width="20" height="21" viewBox="0 0 20 21" fill="none" xmlns="http://www.w3.org/2000/svg">
<g opacity="0.8">
<path opacity="0.4" d="M13.5339 3.53906H6.46719C4.40885 3.53906 2.74219 5.21406 2.74219 7.26406V15.1057C2.74219 17.1557 4.41719 18.8307 6.46719 18.8307H13.5255C15.5839 18.8307 17.2505 17.1557 17.2505 15.1057V7.26406C17.2589 5.20573 15.5839 3.53906 13.5339 3.53906Z" fill="#A81E5E" fill-opacity="0.52"/>
<path d="M11.9604 2.16797H8.04375C7.17708 2.16797 6.46875 2.86797 6.46875 3.73464V4.51797C6.46875 5.38464 7.16875 6.08464 8.03542 6.08464H11.9604C12.8271 6.08464 13.5271 5.38464 13.5271 4.51797V3.73464C13.5354 2.86797 12.8271 2.16797 11.9604 2.16797Z" fill="#A62159"/>
<path d="M13.7515 11.7453H12.1093C12.0802 11.7414 12.0508 11.7414 12.0217 11.7453H11.9509C11.9291 11.7578 11.9082 11.7717 11.8884 11.787C11.8652 11.8024 11.8429 11.8191 11.8217 11.837C11.8078 11.8541 11.7952 11.8722 11.7842 11.8912C11.7651 11.9175 11.7483 11.9454 11.7341 11.9746L11.0672 13.8127L9.32911 9.10273C9.29991 9.02227 9.24663 8.95274 9.17654 8.90361C9.10644 8.85448 9.02291 8.82812 8.93731 8.82812C8.8517 8.82812 8.76818 8.85448 8.69808 8.90361C8.62798 8.95274 8.57471 9.02227 8.5455 9.10273L7.58266 11.7453H6.24885C6.1383 11.7453 6.03228 11.7893 5.95411 11.8674C5.87595 11.9456 5.83203 12.0516 5.83203 12.1622C5.83203 12.2727 5.87595 12.3787 5.95411 12.4569C6.03228 12.5351 6.1383 12.579 6.24885 12.579H8.04115C8.06484 12.5676 8.08721 12.5536 8.10784 12.5373C8.13105 12.522 8.15332 12.5053 8.17453 12.4873L8.21205 12.4331C8.23191 12.4073 8.2487 12.3794 8.26207 12.3497L8.93731 10.4616L10.6713 15.2216C10.7004 15.3021 10.7536 15.3718 10.8237 15.421C10.8938 15.4702 10.9774 15.4966 11.0631 15.4967C11.1487 15.4966 11.2323 15.4702 11.3024 15.421C11.3725 15.3718 11.4257 15.3021 11.4549 15.2216L12.4135 12.579H13.7515C13.8621 12.579 13.9681 12.5351 14.0463 12.4569C14.1244 12.3787 14.1683 12.2727 14.1683 12.1622C14.1683 12.0516 14.1244 11.9456 14.0463 11.8674C13.9681 11.7893 13.8621 11.7453 13.7515 11.7453Z" fill="#A62159"/>
</g>
</svg>
